<svg width="33" height="33" viewBox="0 0 33 33" fill="none" xmlns="http://www.w3.org/2000/svg">
<path d="M26.8675 6.98495C25.4889 5.61604 23.8507 4.53628 22.0491 3.80904C20.2475 3.08179 18.3189 2.72172 16.3762 2.74995C12.7295 2.74084 9.22853 4.18075 6.64346 6.75293C4.05839 9.32511 2.60099 12.8189 2.59187 16.4656C2.58275 20.1123 4.02267 23.6133 6.59485 26.1984C9.16702 28.7834 12.6608 30.2408 16.3075 30.25C17.0933 30.2633 17.8613 30.0154 18.4909 29.545C19.1206 29.0746 19.5762 28.4085 19.7862 27.6512C19.9202 27.1043 19.9188 26.533 19.7822 25.9867C19.6456 25.4405 19.378 24.9358 19.0025 24.5162C18.9157 24.4174 18.859 24.2957 18.8393 24.1657C18.8195 24.0356 18.8375 23.9026 18.891 23.7825C18.9446 23.6623 19.0315 23.5601 19.1414 23.4878C19.2514 23.4156 19.3797 23.3764 19.5112 23.375H21.78C23.9153 23.3849 25.9753 22.5867 27.5464 21.1406C29.1175 19.6945 30.0834 17.7075 30.25 15.5787C30.3011 13.9914 30.0275 12.4104 29.4459 10.9327C28.8642 9.4549 27.9868 8.11154 26.8675 6.98495ZM21.835 20.625H19.5662C18.9037 20.6212 18.2542 20.8098 17.6967 21.1678C17.1392 21.5259 16.6976 22.038 16.4254 22.6421C16.1532 23.2462 16.0621 23.9163 16.1632 24.5711C16.2643 25.2259 16.5533 25.8374 16.995 26.3312C17.081 26.418 17.1418 26.5265 17.1709 26.6452C17.1999 26.7639 17.1962 26.8882 17.16 27.005C17.0912 27.2937 16.775 27.4725 16.3487 27.5C14.7872 27.4799 13.2478 27.1276 11.8329 26.4665C10.4181 25.8054 9.16026 24.8506 8.14307 23.6656C7.12589 22.4806 6.37268 21.0926 5.93355 19.5939C5.49442 18.0953 5.37943 16.5203 5.59625 14.9737C5.98835 12.3749 7.28688 9.99845 9.26218 8.26471C11.2375 6.53098 13.7623 5.55166 16.39 5.49995H16.5C18.0549 5.4796 19.5981 5.77084 21.0387 6.3565C22.4792 6.94216 23.7879 7.81039 24.8875 8.90995C25.7455 9.7685 26.4196 10.7928 26.8688 11.9204C27.318 13.0481 27.5327 14.2554 27.5 15.4687C27.3576 16.8754 26.7005 18.1799 25.6549 19.1316C24.6093 20.0834 23.2489 20.6152 21.835 20.625Z" fill="black" fill-opacity="0.5"/>
<path d="M16.5 11C17.6391 11 18.5625 10.0766 18.5625 8.9375C18.5625 7.79841 17.6391 6.875 16.5 6.875C15.3609 6.875 14.4375 7.79841 14.4375 8.9375C14.4375 10.0766 15.3609 11 16.5 11Z" fill="black" fill-opacity="0.5"/>
<path d="M20.9687 9.89998C20.6156 10.104 20.3309 10.4081 20.1505 10.7739C19.9702 11.1397 19.9023 11.5507 19.9555 11.955C20.0088 12.3594 20.1807 12.7389 20.4495 13.0455C20.7183 13.3522 21.0721 13.5723 21.466 13.678C21.8599 13.7836 22.2762 13.7702 22.6625 13.6393C23.0487 13.5083 23.3875 13.2659 23.636 12.9425C23.8844 12.6191 24.0314 12.2293 24.0584 11.8223C24.0854 11.4154 23.9911 11.0096 23.7875 10.6562C23.6522 10.4214 23.4719 10.2155 23.257 10.0504C23.042 9.88524 22.7967 9.7641 22.5349 9.69386C22.2731 9.62363 22 9.60568 21.7313 9.64105C21.4626 9.67641 21.2034 9.7644 20.9687 9.89998ZM12.0312 9.89998C11.6779 9.69637 11.2721 9.6021 10.8651 9.62907C10.4582 9.65605 10.0684 9.80306 9.74501 10.0515C9.42161 10.3 9.17913 10.6387 9.04821 11.025C8.9173 11.4112 8.90383 11.8276 9.00951 12.2215C9.11519 12.6154 9.33527 12.9691 9.64194 13.238C9.94861 13.5068 10.3281 13.6787 10.7324 13.7319C11.1368 13.7851 11.5478 13.7173 11.9136 13.5369C12.2794 13.3566 12.5835 13.0719 12.7875 12.7187C12.9231 12.484 13.0111 12.2249 13.0464 11.9562C13.0818 11.6875 13.0638 11.4144 12.9936 11.1526C12.9234 10.8908 12.8022 10.6454 12.6371 10.4305C12.472 10.2156 12.2661 10.0353 12.0312 9.89998ZM8.46999 15.4825C8.1317 15.7109 7.86879 16.0346 7.71456 16.4125C7.56033 16.7904 7.5217 17.2056 7.60358 17.6055C7.68546 18.0054 7.88415 18.372 8.17451 18.6589C8.46486 18.9458 8.83382 19.1401 9.23466 19.2172C9.63551 19.2943 10.0502 19.2507 10.4263 19.0919C10.8023 18.9332 11.1228 18.6664 11.3472 18.3254C11.5715 17.9844 11.6897 17.5845 11.6866 17.1763C11.6835 16.7682 11.5594 16.3701 11.33 16.0325C11.1793 15.8075 10.9854 15.6146 10.7597 15.4649C10.5339 15.3153 10.2807 15.2119 10.0147 15.1608C9.74878 15.1096 9.47531 15.1117 9.21016 15.167C8.94501 15.2222 8.69343 15.3294 8.46999 15.4825Z" fill="black" fill-opacity="0.5"/>
</svg>
