<svg width="261" height="253" viewBox="0 0 261 253" fill="none" xmlns="http://www.w3.org/2000/svg">
<g clip-path="url(#clip0)">
<path d="M165.694 56.8989H95.3654C93.7627 56.9008 92.2263 57.5339 91.093 58.6593C89.9598 59.7847 89.3223 61.3104 89.3203 62.902V218.122L88.5143 218.366L71.2617 223.613C70.444 223.86 69.5609 223.776 68.8061 223.377C68.0513 222.979 67.4865 222.299 67.2358 221.488L15.9171 55.0219C15.6674 54.2099 15.7525 53.3327 16.1538 52.583C16.555 51.8333 17.2396 51.2725 18.0571 51.0238L44.6433 42.9397L121.718 19.5116L148.304 11.4274C148.709 11.3037 149.134 11.2605 149.555 11.3002C149.977 11.34 150.386 11.4618 150.76 11.6588C151.134 11.8558 151.465 12.1241 151.734 12.4484C152.004 12.7727 152.206 13.1465 152.33 13.5485L165.448 56.0985L165.694 56.8989Z" fill="#F2F2F2"/>
<path d="M181.04 56.0991L165.231 4.81666C164.968 3.9622 164.538 3.16759 163.965 2.47822C163.393 1.78886 162.689 1.21826 161.895 0.799022C161.1 0.379789 160.23 0.120137 159.334 0.0349135C158.439 -0.05031 157.535 0.0405651 156.675 0.302337L119.296 11.6642L42.2258 35.0963L4.84717 46.4621C3.11076 46.9916 1.65683 48.1837 0.804537 49.7766C-0.0477599 51.3695 -0.2288 53.2332 0.301164 54.9585L54.336 230.221C54.7665 231.614 55.6352 232.833 56.8145 233.699C57.9939 234.566 59.4219 235.034 60.8889 235.035C61.5679 235.036 62.2431 234.935 62.8917 234.735L88.5148 226.947L89.3208 226.699V225.863L88.5148 226.107L62.654 233.971C61.1213 234.435 59.4659 234.276 58.0508 233.53C56.6358 232.783 55.5766 231.51 55.1058 229.989L1.0751 54.7224C0.841793 53.9688 0.760481 53.1769 0.835813 52.392C0.911145 51.6071 1.14163 50.8447 1.5141 50.1484C1.88656 49.4521 2.39369 48.8357 3.00641 48.3343C3.61914 47.8329 4.32544 47.4565 5.08487 47.2265L42.4635 35.8607L119.534 12.4326L156.913 1.06674C157.489 0.892168 158.088 0.803158 158.69 0.802601C159.982 0.805483 161.24 1.21928 162.278 1.98338C163.317 2.74748 164.082 3.82173 164.461 5.04879L180.198 56.0991L180.448 56.8995H181.286L181.04 56.0991Z" fill="#3F3D56"/>
<path d="M49.4409 51.1547C48.6642 51.1542 47.908 50.9064 47.2834 50.4479C46.6589 49.9893 46.1987 49.344 45.9705 48.6067L40.7797 31.7693C40.6402 31.3171 40.5918 30.8419 40.6372 30.3711C40.6827 29.9002 40.8211 29.4428 41.0445 29.0251C41.268 28.6074 41.5721 28.2375 41.9396 27.9365C42.307 27.6355 42.7306 27.4093 43.1861 27.2709L114.09 5.71429C115.01 5.43556 116.004 5.53063 116.853 5.97862C117.702 6.42661 118.338 7.19092 118.62 8.10381L123.811 24.9414C124.092 25.8548 123.996 26.8414 123.545 27.6848C123.094 28.5282 122.324 29.1594 121.405 29.44L50.5006 50.9966C50.1572 51.1013 49.8001 51.1546 49.4409 51.1547Z" fill="#043353"/>
<path d="M76.6327 17.9911C81.0841 17.9911 84.6927 14.4075 84.6927 9.98698C84.6927 5.56642 81.0841 1.98285 76.6327 1.98285C72.1812 1.98285 68.5726 5.56642 68.5726 9.98698C68.5726 14.4075 72.1812 17.9911 76.6327 17.9911Z" fill="#043353"/>
<path d="M76.6326 15.0554C79.4514 15.0554 81.7365 12.7862 81.7365 9.98698C81.7365 7.18775 79.4514 4.91852 76.6326 4.91852C73.8138 4.91852 71.5287 7.18775 71.5287 9.98698C71.5287 12.7862 73.8138 15.0554 76.6326 15.0554Z" fill="white"/>
<path d="M242.865 232.99H106.65C105.741 232.989 104.871 232.63 104.228 231.992C103.586 231.354 103.225 230.49 103.224 229.588V67.5044C103.225 66.6025 103.586 65.7378 104.228 65.1001C104.871 64.4623 105.741 64.1036 106.65 64.1026H242.865C243.773 64.1036 244.644 64.4624 245.286 65.1001C245.928 65.7378 246.289 66.6025 246.29 67.5044V229.588C246.289 230.49 245.928 231.354 245.286 231.992C244.644 232.63 243.773 232.989 242.865 232.99Z" fill="#E6E6E6"/>
<path d="M180.198 56.0985H95.3654C93.5491 56.1011 91.808 56.8187 90.5238 58.094C89.2395 59.3694 88.5169 61.0984 88.5143 62.902V226.106L89.3203 225.862V62.902C89.3222 61.3105 89.9598 59.7847 91.093 58.6593C92.2262 57.5339 93.7627 56.9009 95.3654 56.8989H180.448L180.198 56.0985ZM254.149 56.0985H95.3654C93.5491 56.1011 91.808 56.8187 90.5238 58.094C89.2395 59.3694 88.5169 61.0984 88.5143 62.902V246.197C88.5169 248 89.2395 249.729 90.5238 251.005C91.808 252.28 93.5491 252.998 95.3654 253H254.149C255.965 252.998 257.706 252.28 258.991 251.005C260.275 249.729 260.997 248 261 246.197V62.902C260.997 61.0984 260.275 59.3694 258.991 58.094C257.706 56.8187 255.965 56.1011 254.149 56.0985ZM260.194 246.197C260.192 247.788 259.555 249.314 258.421 250.439C257.288 251.565 255.752 252.198 254.149 252.2H95.3654C93.7627 252.198 92.2262 251.565 91.093 250.439C89.9598 249.314 89.3222 247.788 89.3203 246.197V62.902C89.3222 61.3105 89.9598 59.7847 91.093 58.6593C92.2262 57.5339 93.7627 56.9009 95.3654 56.8989H254.149C255.752 56.9009 257.288 57.5339 258.421 58.6593C259.555 59.7847 260.192 61.3105 260.194 62.902V246.197Z" fill="#3F3D56"/>
<path d="M211.834 73.7076H137.681C136.719 73.7065 135.797 73.3267 135.117 72.6514C134.437 71.9762 134.055 71.0607 134.054 70.1057V52.4966C134.055 51.5417 134.437 50.6262 135.117 49.9509C135.797 49.2757 136.719 48.8959 137.681 48.8948H211.834C212.795 48.8959 213.717 49.2757 214.397 49.9509C215.077 50.6262 215.46 51.5417 215.461 52.4966V70.1057C215.46 71.0607 215.077 71.9762 214.397 72.6514C213.717 73.3267 212.795 73.7065 211.834 73.7076Z" fill="#043353"/>
<path d="M174.757 50.0954C179.209 50.0954 182.817 46.5118 182.817 42.0913C182.817 37.6707 179.209 34.0872 174.757 34.0872C170.306 34.0872 166.697 37.6707 166.697 42.0913C166.697 46.5118 170.306 50.0954 174.757 50.0954Z" fill="#043353"/>
<path d="M174.757 46.9665C177.469 46.9665 179.667 44.7837 179.667 42.0912C179.667 39.3987 177.469 37.2159 174.757 37.2159C172.046 37.2159 169.848 39.3987 169.848 42.0912C169.848 44.7837 172.046 46.9665 174.757 46.9665Z" fill="white"/>
</g>
<defs>
<clipPath id="clip0">
<rect width="261" height="253" fill="white"/>
</clipPath>
</defs>
</svg>
