<svg width="369" height="272" viewBox="0 0 369 272" fill="none" xmlns="http://www.w3.org/2000/svg">
<g clip-path="url(#clip0)">
<path d="M136.771 167.591L60.3849 183.678C58.1774 184.141 55.8766 183.709 53.9871 182.479C52.0976 181.248 50.7738 179.319 50.3062 177.114L37.1984 114.98C36.7358 112.774 37.1676 110.475 38.3992 108.587C39.6308 106.699 41.5616 105.376 43.768 104.909L120.154 88.8216C122.362 88.3593 124.662 88.7908 126.552 90.0214C128.441 91.252 129.765 93.1812 130.233 95.3857L143.341 157.52C143.803 159.726 143.371 162.025 142.14 163.913C140.908 165.801 138.977 167.124 136.771 167.591ZM43.9744 105.888C42.0276 106.3 40.324 107.467 39.2372 109.133C38.1505 110.799 37.7695 112.827 38.1778 114.773L51.2855 176.908C51.6981 178.853 52.8662 180.555 54.5334 181.641C56.2005 182.727 58.2307 183.108 60.1785 182.7L136.565 166.612C138.511 166.2 140.215 165.033 141.302 163.367C142.388 161.701 142.769 159.673 142.361 157.727L129.253 95.592C128.841 93.6468 127.673 91.9445 126.006 90.8587C124.338 89.7729 122.308 89.3922 120.36 89.8001L43.9744 105.888Z" fill="#3F3D56"/>
<path d="M115.408 109.309L76.857 117.428C76.5196 117.507 76.1651 117.454 75.8651 117.281C75.5651 117.108 75.3421 116.828 75.241 116.497C75.1947 116.324 75.1842 116.144 75.21 115.967C75.2358 115.79 75.2973 115.621 75.3909 115.468C75.4845 115.316 75.6081 115.185 75.7543 115.082C75.9005 114.979 76.0661 114.907 76.2411 114.87L115.484 106.605C117.016 107.468 116.532 109.073 115.408 109.309L115.408 109.309Z" fill="#CCCCCC"/>
<path d="M116.833 116.066L78.2823 124.185C77.945 124.263 77.5905 124.21 77.2905 124.038C76.9905 123.865 76.7674 123.584 76.6663 123.253C76.6201 123.081 76.6096 122.901 76.6353 122.724C76.6611 122.547 76.7227 122.377 76.8163 122.225C76.9098 122.073 77.0335 121.941 77.1797 121.838C77.3258 121.735 77.4915 121.663 77.6664 121.626L116.909 113.362C118.441 114.224 117.957 115.829 116.833 116.066L116.833 116.066Z" fill="#CCCCCC"/>
<path d="M70.76 129.787L58.9946 132.265C58.6104 132.345 58.2099 132.27 57.881 132.056C57.5521 131.842 57.3217 131.506 57.2403 131.122L54.3138 117.25C54.2332 116.866 54.3084 116.466 54.5227 116.137C54.7371 115.808 55.0732 115.578 55.4573 115.497L67.2227 113.019C67.6069 112.939 68.0074 113.014 68.3362 113.228C68.6651 113.442 68.8955 113.778 68.977 114.162L71.9035 128.034C71.9841 128.418 71.909 128.818 71.6946 129.147C71.4802 129.476 71.1441 129.706 70.76 129.787V129.787Z" fill="#CCCCCC"/>
<path d="M119.64 129.923L60.8037 142.315C60.4663 142.393 60.1118 142.34 59.8118 142.167C59.5119 141.994 59.2888 141.714 59.1877 141.383C59.1415 141.211 59.1309 141.03 59.1567 140.854C59.1825 140.677 59.244 140.507 59.3376 140.355C59.4312 140.203 59.5549 140.071 59.701 139.968C59.8472 139.865 60.0128 139.793 60.1878 139.756L119.716 127.219C121.248 128.082 120.764 129.687 119.64 129.923Z" fill="#CCCCCC"/>
<path d="M121.065 136.682L62.2294 149.073C61.892 149.151 61.5375 149.099 61.2376 148.926C60.9376 148.753 60.7145 148.473 60.6134 148.142C60.5672 147.969 60.5566 147.789 60.5824 147.612C60.6082 147.435 60.6697 147.266 60.7633 147.113C60.8569 146.961 60.9806 146.829 61.1267 146.727C61.2729 146.624 61.4386 146.551 61.6135 146.515L121.142 133.978C122.674 134.84 122.189 136.445 121.065 136.682Z" fill="#CCCCCC"/>
<path d="M122.49 143.436L63.6542 155.827C63.3169 155.906 62.9624 155.853 62.6624 155.68C62.3624 155.507 62.1393 155.227 62.0382 154.896C61.992 154.723 61.9814 154.543 62.0072 154.366C62.033 154.189 62.0945 154.02 62.1881 153.867C62.2817 153.715 62.4054 153.584 62.5516 153.481C62.6977 153.378 62.8634 153.306 63.0383 153.269L122.566 140.732C124.099 141.594 123.614 143.199 122.49 143.436H122.49Z" fill="#CCCCCC"/>
<path d="M123.916 150.194L65.0799 162.585C64.7425 162.664 64.388 162.611 64.088 162.438C63.7881 162.265 63.565 161.985 63.4639 161.654C63.4176 161.481 63.4071 161.301 63.4329 161.124C63.4587 160.947 63.5202 160.778 63.6138 160.625C63.7074 160.473 63.831 160.342 63.9772 160.239C64.1234 160.136 64.289 160.064 64.464 160.027L123.992 147.49C125.524 148.352 125.04 149.957 123.916 150.194Z" fill="#CCCCCC"/>
<path d="M125.341 156.949L66.5048 169.34C66.1674 169.418 65.8129 169.365 65.5129 169.193C65.213 169.02 64.9899 168.739 64.8888 168.408C64.8426 168.236 64.832 168.056 64.8578 167.879C64.8836 167.702 64.9451 167.532 65.0387 167.38C65.1323 167.228 65.256 167.096 65.4021 166.993C65.5483 166.89 65.7139 166.818 65.8889 166.781L125.417 154.244C126.949 155.107 126.465 156.712 125.341 156.949Z" fill="#CCCCCC"/>
<path d="M134.726 126.015C134.592 126.257 134.478 126.51 134.384 126.77L110.297 132.742L106.107 128.411L98.7385 133.875L105.411 142.263C105.95 142.941 106.694 143.425 107.532 143.644C108.37 143.863 109.257 143.805 110.059 143.477L136.195 132.806C137.054 133.438 138.086 133.793 139.152 133.825C140.218 133.857 141.269 133.564 142.164 132.985C143.06 132.406 143.757 131.568 144.164 130.583C144.572 129.597 144.669 128.512 144.443 127.47C144.218 126.428 143.681 125.48 142.903 124.751C142.124 124.022 141.143 123.547 140.088 123.389C139.033 123.231 137.955 123.397 136.997 123.867C136.039 124.336 135.247 125.085 134.726 126.015L134.726 126.015Z" fill="#FFB8B8"/>
<path d="M52.5095 179.161C53.2604 178.93 53.9513 178.536 54.5336 178.009C55.1159 177.481 55.5754 176.833 55.8797 176.109C56.184 175.385 56.3257 174.603 56.2949 173.818C56.2641 173.034 56.0614 172.265 55.7013 171.567L72.2771 125.534L60.7657 123.495L48.0919 169.386C46.9586 170.068 46.1151 171.142 45.7213 172.404C45.3274 173.667 45.4107 175.029 45.9552 176.234C46.4997 177.439 47.4677 178.403 48.6757 178.942C49.8837 179.482 51.2478 179.56 52.5095 179.161Z" fill="#FFB8B8"/>
<path d="M70.1719 133.705L58.8063 129.347C58.4829 129.223 58.1901 129.031 57.9477 128.783C57.7054 128.536 57.5193 128.24 57.402 127.914C57.2847 127.588 57.239 127.241 57.2681 126.896C57.2971 126.551 57.4003 126.217 57.5704 125.915L63.5328 115.352C64.1777 113.704 65.4504 112.377 67.0722 111.664C68.694 110.951 70.5326 110.91 72.1849 111.549C73.8372 112.188 75.1685 113.456 75.887 115.074C76.6056 116.692 76.6527 118.529 76.0181 120.182L73.3882 131.981C73.3128 132.319 73.1654 132.636 72.9561 132.912C72.7468 133.188 72.4804 133.415 72.1752 133.579C71.87 133.743 71.5331 133.839 71.1874 133.86C70.8417 133.882 70.4953 133.829 70.1719 133.705V133.705Z" fill="#E44652"/>
<path d="M95.8257 265.588H101.96L104.879 241.943L95.8247 241.944L95.8257 265.588Z" fill="#FFB8B8"/>
<path d="M94.2607 263.586L106.343 263.586H106.343C107.354 263.586 108.355 263.785 109.29 264.171C110.224 264.558 111.073 265.125 111.788 265.839C112.502 266.553 113.07 267.402 113.457 268.335C113.844 269.268 114.043 270.269 114.043 271.279V271.529L94.261 271.53L94.2607 263.586Z" fill="#2F2E41"/>
<path d="M61.2972 265.588H67.4318L70.3507 241.943L61.2962 241.944L61.2972 265.588Z" fill="#FFB8B8"/>
<path d="M59.7322 263.586L71.8141 263.586H71.8146C72.8257 263.586 73.8269 263.785 74.7611 264.171C75.6952 264.558 76.544 265.125 77.259 265.839C77.974 266.553 78.5412 267.402 78.9281 268.335C79.315 269.268 79.5142 270.269 79.5142 271.279V271.529L59.7325 271.53L59.7322 263.586Z" fill="#2F2E41"/>
<path d="M67.7286 256.071H59.9649C59.6602 256.071 59.3586 256.009 59.0785 255.89C58.7984 255.77 58.5456 255.594 58.3353 255.374C58.125 255.154 57.9617 254.893 57.8551 254.608C57.7486 254.322 57.7012 254.018 57.7156 253.714L61.4033 174.548L61.6357 174.542L99.1263 173.565L106.463 252.777C106.491 253.074 106.46 253.373 106.371 253.658C106.282 253.943 106.138 254.207 105.946 254.436C105.754 254.664 105.518 254.852 105.253 254.989C104.988 255.126 104.698 255.209 104.4 255.232L95.6801 255.929C95.1323 255.973 94.5874 255.815 94.1481 255.485C93.7087 255.155 93.4052 254.676 93.2946 254.138L82.1402 197.75C82.1098 197.579 82.0189 197.424 81.884 197.314C81.7491 197.204 81.5792 197.146 81.4051 197.15H81.4021C81.2274 197.146 81.0572 197.205 80.9224 197.317C80.7877 197.428 80.6975 197.584 80.6683 197.756L69.9381 254.256C69.8365 254.767 69.5609 255.227 69.1581 255.558C68.7553 255.889 68.2502 256.07 67.7286 256.071Z" fill="#2F2E41"/>
<path d="M81.9502 103.942C88.7382 103.942 94.2409 98.4441 94.2409 91.6618C94.2409 84.8794 88.7382 79.3813 81.9502 79.3813C75.1623 79.3813 69.6595 84.8794 69.6595 91.6618C69.6595 98.4441 75.1623 103.942 81.9502 103.942Z" fill="#FFB8B8"/>
<path d="M77.8291 183.826C71.9711 183.826 65.9541 182.287 60.9661 177.738C60.7007 177.498 60.4957 177.198 60.368 176.864C60.2402 176.529 60.1932 176.169 60.2308 175.813C60.7646 171.02 63.3544 146.273 61.896 129.742C61.6113 126.654 62.0489 123.542 63.174 120.652C64.2991 117.762 66.081 115.173 68.3791 113.089C70.637 111.01 73.3475 109.484 76.2969 108.63C79.2463 107.777 82.3538 107.62 85.3742 108.172H85.3744C85.5274 108.2 85.6804 108.228 85.8336 108.258C95.6735 110.161 102.51 119.26 101.737 129.423C100.608 144.253 99.5959 164.313 101.185 175.657C101.251 176.121 101.17 176.594 100.953 177.01C100.736 177.426 100.395 177.763 99.9765 177.976C96.3611 179.801 87.3029 183.826 77.8291 183.826Z" fill="#E44652"/>
<path d="M93.8669 134.589C93.5785 134.397 93.3349 134.146 93.1528 133.851C92.9706 133.557 92.8541 133.227 92.8113 132.883L91.3139 120.888C90.8386 119.182 91.0596 117.358 91.9285 115.815C92.7975 114.271 94.2434 113.135 95.9493 112.656C97.6552 112.176 99.4819 112.392 101.029 113.256C102.576 114.12 103.717 115.561 104.202 117.264L109.134 128.345C109.275 128.661 109.345 129.004 109.342 129.35C109.338 129.696 109.259 130.037 109.112 130.35C108.964 130.663 108.751 130.941 108.486 131.164C108.221 131.387 107.911 131.551 107.578 131.644L95.8493 134.905C95.5156 134.998 95.1657 135.018 94.8236 134.963C94.4815 134.909 94.1552 134.781 93.8669 134.589Z" fill="#E44652"/>
<path d="M77.6597 103.769C76.4963 103.79 75.3403 103.581 74.2582 103.154C73.7822 102.971 73.2879 102.82 72.8127 102.637C68.616 101.016 65.8514 96.5506 65.7524 92.0563C65.6534 87.562 67.9827 83.1999 71.4416 80.3251C74.9005 77.4504 79.3807 75.9745 83.8668 75.6332C88.6991 75.2655 94.1405 76.4899 96.8407 80.5109C97.5595 81.5813 98.0621 82.8799 97.6362 84.1722C97.5087 84.5622 97.2808 84.9118 96.9756 85.1862C95.7697 86.2582 94.5674 85.4521 93.3381 85.3809C91.6485 85.283 90.1309 86.6496 89.5854 88.2505C89.04 89.8513 89.2801 91.6138 89.7205 93.2466C90.056 94.2291 90.2675 95.2497 90.3501 96.2846C90.3857 96.8035 90.288 97.3229 90.0663 97.7935C89.8447 98.2641 89.5064 98.6704 89.0836 98.9738C88.0278 99.6115 86.6412 99.2424 85.5848 98.6058C84.5283 97.9691 83.6155 97.0839 82.4743 96.6154C81.3331 96.1469 79.8 96.2509 79.1358 97.2897C78.9247 97.6677 78.7818 98.0798 78.7137 98.5073C78.1183 101.218 78.2551 101.058 77.6597 103.769V103.769Z" fill="#2F2E41"/>
<path d="M247.9 87H169.835C167.58 86.9975 165.418 86.1011 163.823 84.5076C162.228 82.9141 161.331 80.7536 161.328 78.5V15C161.331 12.7464 162.228 10.5859 163.823 8.99239C165.418 7.39888 167.58 6.50254 169.835 6.5H247.9C250.155 6.50254 252.318 7.39888 253.912 8.99239C255.507 10.5859 256.404 12.7464 256.407 15V78.5C256.404 80.7536 255.507 82.9141 253.912 84.5076C252.318 86.1011 250.155 86.9975 247.9 87ZM169.835 7.5C167.845 7.50225 165.937 8.29315 164.53 9.69918C163.123 11.1052 162.331 13.0116 162.329 15V78.5C162.331 80.4884 163.123 82.3948 164.53 83.8008C165.937 85.2068 167.845 85.9977 169.835 86H247.9C249.89 85.9977 251.798 85.2068 253.205 83.8008C254.612 82.3948 255.404 80.4884 255.406 78.5V15C255.404 13.0116 254.612 11.1052 253.205 9.69918C251.798 8.29315 249.89 7.50225 247.9 7.5H169.835Z" fill="#3F3D56"/>
<path d="M239.027 25.569H199.629C199.282 25.576 198.946 25.4514 198.689 25.2204C198.431 24.9894 198.27 24.6692 198.24 24.3245C198.23 24.146 198.257 23.9675 198.319 23.7998C198.38 23.6322 198.476 23.4788 198.599 23.3491C198.722 23.2194 198.87 23.1161 199.034 23.0455C199.198 22.9749 199.375 22.9385 199.554 22.9385H239.659C240.98 24.0985 240.175 25.569 239.026 25.569L239.027 25.569Z" fill="#CCCCCC"/>
<path d="M239.027 32.474H199.629C199.282 32.481 198.946 32.3564 198.689 32.1254C198.431 31.8944 198.27 31.5742 198.24 31.2295C198.23 31.051 198.257 30.8725 198.319 30.7048C198.38 30.5372 198.476 30.3838 198.599 30.2541C198.722 30.1244 198.87 30.0211 199.034 29.9505C199.198 29.8799 199.375 29.8435 199.554 29.8435H239.659C240.98 31.0035 240.175 32.474 239.026 32.474L239.027 32.474Z" fill="#CCCCCC"/>
<path d="M191.112 36.4055H179.088C178.695 36.4051 178.319 36.2491 178.041 35.9717C177.764 35.6943 177.607 35.3183 177.607 34.926V20.7485C177.607 20.3562 177.764 19.9801 178.041 19.7028C178.319 19.4254 178.695 19.2694 179.088 19.269H191.112C191.504 19.2695 191.881 19.4256 192.158 19.7029C192.436 19.9803 192.592 20.3563 192.592 20.7485V34.926C192.592 35.3183 192.436 35.6943 192.158 35.9717C191.881 36.2491 191.504 36.4051 191.112 36.4055Z" fill="#3F3D56"/>
<path d="M238.912 46.612H178.783C178.437 46.619 178.101 46.4944 177.843 46.2634C177.585 46.0324 177.425 45.7122 177.394 45.3675C177.385 45.1891 177.412 45.0106 177.473 44.8429C177.535 44.6752 177.63 44.5218 177.753 44.3921C177.876 44.2624 178.025 44.1591 178.189 44.0885C178.353 44.0179 178.53 43.9815 178.709 43.9815H239.545C240.866 45.1415 240.061 46.612 238.912 46.612V46.612Z" fill="#CCCCCC"/>
<path d="M238.912 53.519H178.783C178.437 53.526 178.101 53.4014 177.843 53.1704C177.585 52.9394 177.425 52.6192 177.394 52.2745C177.385 52.0961 177.412 51.9175 177.473 51.7498C177.535 51.5821 177.63 51.4288 177.753 51.2991C177.876 51.1694 178.025 51.0661 178.189 50.9955C178.353 50.9249 178.53 50.8885 178.709 50.8885H239.545C240.866 52.0485 240.061 53.519 238.912 53.519V53.519Z" fill="#CCCCCC"/>
<path d="M238.912 60.4215H178.783C178.437 60.4285 178.101 60.3039 177.843 60.0729C177.585 59.8419 177.425 59.5217 177.394 59.177C177.385 58.9986 177.412 58.8201 177.473 58.6524C177.535 58.4847 177.63 58.3313 177.753 58.2016C177.876 58.0719 178.025 57.9686 178.189 57.898C178.353 57.8274 178.53 57.791 178.709 57.791H239.545C240.866 58.951 240.061 60.4215 238.912 60.4215V60.4215Z" fill="#CCCCCC"/>
<path d="M238.912 67.328H178.783C178.437 67.335 178.101 67.2104 177.843 66.9794C177.585 66.7484 177.425 66.4282 177.394 66.0835C177.385 65.9051 177.412 65.7266 177.473 65.5589C177.535 65.3912 177.63 65.2378 177.753 65.1081C177.876 64.9784 178.025 64.8751 178.189 64.8045C178.353 64.7339 178.53 64.6975 178.709 64.6975H239.545C240.866 65.8575 240.061 67.328 238.912 67.328V67.328Z" fill="#CCCCCC"/>
<path d="M238.912 74.231H178.783C178.437 74.238 178.101 74.1134 177.843 73.8824C177.585 73.6514 177.425 73.3312 177.394 72.9865C177.385 72.8081 177.412 72.6296 177.473 72.4619C177.535 72.2942 177.63 72.1408 177.753 72.0111C177.876 71.8814 178.025 71.7781 178.189 71.7075C178.353 71.6369 178.53 71.6005 178.709 71.6005H239.545C240.866 72.7605 240.061 74.231 238.912 74.231Z" fill="#CCCCCC"/>
<path d="M230.886 0C231.549 0.000758276 232.185 0.264394 232.654 0.73307C233.123 1.20175 233.387 1.83719 233.388 2.5V10.5C233.387 11.1628 233.123 11.7983 232.654 12.2669C232.185 12.7356 231.549 12.9992 230.886 13H186.849C186.186 12.9992 185.55 12.7356 185.081 12.2669C184.612 11.7983 184.348 11.1628 184.347 10.5V2.5C184.348 1.83719 184.612 1.20175 185.081 0.73307C185.55 0.264394 186.186 0.000758276 186.849 0" fill="#E44652"/>
<path d="M360.493 165.5H282.428C280.173 165.497 278.011 164.601 276.416 163.008C274.821 161.414 273.924 159.254 273.921 157V93.5C273.924 91.2464 274.821 89.0859 276.416 87.4924C278.011 85.8989 280.173 85.0025 282.428 85H360.493C362.748 85.0025 364.911 85.8989 366.506 87.4924C368.1 89.0859 368.997 91.2464 369 93.5V157C368.997 159.254 368.1 161.414 366.506 163.008C364.911 164.601 362.748 165.497 360.493 165.5ZM282.428 86C280.438 86.0022 278.53 86.7932 277.123 88.1992C275.716 89.6052 274.924 91.5116 274.922 93.5V157C274.924 158.988 275.716 160.895 277.123 162.301C278.53 163.707 280.438 164.498 282.428 164.5H360.493C362.483 164.498 364.391 163.707 365.798 162.301C367.205 160.895 367.997 158.988 367.999 157V93.5C367.997 91.5116 367.205 89.6052 365.798 88.1992C364.391 86.7932 362.483 86.0022 360.493 86H282.428Z" fill="#3F3D56"/>
<path d="M351.62 104.069H312.222C311.875 104.076 311.539 103.951 311.282 103.72C311.024 103.489 310.863 103.169 310.833 102.824C310.823 102.646 310.85 102.468 310.912 102.3C310.973 102.132 311.069 101.979 311.192 101.849C311.315 101.719 311.463 101.616 311.627 101.546C311.791 101.475 311.968 101.439 312.147 101.439H352.252C353.573 102.599 352.768 104.069 351.619 104.069H351.62Z" fill="#3F3D56"/>
<path d="M351.62 110.974H312.222C311.875 110.981 311.539 110.856 311.282 110.625C311.024 110.394 310.863 110.074 310.833 109.729C310.823 109.551 310.85 109.373 310.912 109.205C310.973 109.037 311.069 108.884 311.192 108.754C311.315 108.624 311.463 108.521 311.627 108.451C311.791 108.38 311.968 108.344 312.147 108.344H352.252C353.573 109.504 352.768 110.974 351.619 110.974H351.62Z" fill="#3F3D56"/>
<path d="M303.705 114.906H291.681C291.288 114.905 290.912 114.749 290.634 114.472C290.357 114.194 290.2 113.818 290.2 113.426V99.2485C290.2 98.8562 290.357 98.4801 290.634 98.2028C290.912 97.9254 291.288 97.7694 291.681 97.769H303.705C304.097 97.7695 304.474 97.9256 304.751 98.2029C305.029 98.4803 305.185 98.8563 305.185 99.2485V113.426C305.185 113.818 305.029 114.194 304.751 114.472C304.474 114.749 304.097 114.905 303.705 114.906Z" fill="#CCCCCC"/>
<path d="M351.244 153.406H339.22C338.828 153.405 338.451 153.249 338.173 152.972C337.896 152.694 337.74 152.318 337.739 151.926V143.749C337.74 143.356 337.896 142.98 338.173 142.703C338.451 142.425 338.828 142.269 339.22 142.269H351.244C351.637 142.27 352.013 142.426 352.291 142.703C352.568 142.98 352.724 143.356 352.725 143.749V151.926C352.724 152.318 352.568 152.694 352.291 152.972C352.013 153.249 351.637 153.405 351.244 153.406Z" fill="#3F3D56"/>
<path d="M351.505 125.112H291.376C291.03 125.119 290.694 124.994 290.436 124.763C290.179 124.532 290.018 124.212 289.988 123.867C289.978 123.689 290.005 123.511 290.067 123.343C290.128 123.175 290.224 123.022 290.347 122.892C290.47 122.762 290.618 122.659 290.782 122.589C290.946 122.518 291.123 122.482 291.302 122.482H352.138C353.459 123.642 352.654 125.112 351.505 125.112V125.112Z" fill="#CCCCCC"/>
<path d="M351.505 132.019H291.376C291.03 132.026 290.694 131.901 290.436 131.67C290.179 131.439 290.018 131.119 289.988 130.774C289.978 130.596 290.005 130.418 290.067 130.25C290.128 130.082 290.224 129.929 290.347 129.799C290.47 129.669 290.618 129.566 290.782 129.495C290.946 129.425 291.123 129.389 291.302 129.389H352.138C353.459 130.549 352.654 132.019 351.505 132.019V132.019Z" fill="#CCCCCC"/>
<path d="M351.505 138.921H291.376C291.03 138.929 290.694 138.804 290.436 138.573C290.179 138.342 290.018 138.022 289.988 137.677C289.978 137.499 290.005 137.32 290.067 137.152C290.128 136.985 290.224 136.831 290.347 136.702C290.47 136.572 290.618 136.469 290.782 136.398C290.946 136.327 291.123 136.291 291.302 136.291H352.138C353.459 137.451 352.654 138.922 351.505 138.922V138.921Z" fill="#CCCCCC"/>
<path d="M319.979 145.828H291.376C291.03 145.835 290.694 145.71 290.436 145.479C290.179 145.248 290.018 144.928 289.988 144.583C289.978 144.405 290.005 144.227 290.067 144.059C290.128 143.891 290.224 143.738 290.347 143.608C290.47 143.478 290.618 143.375 290.782 143.305C290.946 143.234 291.123 143.198 291.302 143.198H320.612C321.933 144.358 321.128 145.828 319.979 145.828V145.828Z" fill="#CCCCCC"/>
<path d="M319.979 152.731H291.376C291.03 152.738 290.694 152.613 290.436 152.382C290.179 152.151 290.018 151.831 289.988 151.486C289.978 151.308 290.005 151.13 290.067 150.962C290.128 150.794 290.224 150.641 290.347 150.511C290.47 150.381 290.618 150.278 290.782 150.208C290.946 150.137 291.123 150.1 291.302 150.1H320.612C321.933 151.26 321.128 152.731 319.979 152.731Z" fill="#CCCCCC"/>
<path d="M343.479 91.5H299.442C298.779 91.4992 298.143 91.2356 297.674 90.7669C297.205 90.2982 296.941 89.6628 296.94 89V81C296.941 80.3372 297.205 79.7018 297.674 79.2331C298.143 78.7644 298.779 78.5008 299.442 78.5H343.479C344.142 78.5008 344.778 78.7644 345.247 79.2331C345.716 79.7018 345.98 80.3372 345.981 81V89C345.98 89.6628 345.716 90.2982 345.247 90.7669C344.778 91.2356 344.142 91.4992 343.479 91.5Z" fill="#E44652"/>
<path d="M191.158 272H0.500414C0.367696 272 0.240413 271.947 0.146567 271.854C0.0527216 271.76 0 271.633 0 271.5C0 271.367 0.0527216 271.24 0.146567 271.146C0.240413 271.053 0.367696 271 0.500414 271H191.158C191.291 271 191.418 271.053 191.512 271.146C191.606 271.24 191.658 271.367 191.658 271.5C191.658 271.633 191.606 271.76 191.512 271.854C191.418 271.947 191.291 272 191.158 272Z" fill="#3F3D56"/>
<path d="M48.4219 14.8956C50.2092 14.8956 51.658 13.4479 51.658 11.6622C51.658 9.87637 50.2092 8.42871 48.4219 8.42871C46.6347 8.42871 45.1858 9.87637 45.1858 11.6622C45.1858 13.4479 46.6347 14.8956 48.4219 14.8956Z" fill="#F2F2F2"/>
<path d="M48.4219 27.7822C50.2092 27.7822 51.658 26.3346 51.658 24.5488C51.658 22.763 50.2092 21.3154 48.4219 21.3154C46.6347 21.3154 45.1858 22.763 45.1858 24.5488C45.1858 26.3346 46.6347 27.7822 48.4219 27.7822Z" fill="#F2F2F2"/>
<path d="M48.4219 40.6689C50.2092 40.6689 51.658 39.2212 51.658 37.4354C51.658 35.6497 50.2092 34.202 48.4219 34.202C46.6347 34.202 45.1858 35.6497 45.1858 37.4354C45.1858 39.2212 46.6347 40.6689 48.4219 40.6689Z" fill="#F2F2F2"/>
<path d="M48.4219 53.5555C50.2092 53.5555 51.658 52.1079 51.658 50.3221C51.658 48.5363 50.2092 47.0887 48.4219 47.0887C46.6347 47.0887 45.1858 48.5363 45.1858 50.3221C45.1858 52.1079 46.6347 53.5555 48.4219 53.5555Z" fill="#F2F2F2"/>
<path d="M61.9331 14.8956C63.7204 14.8956 65.1693 13.4479 65.1693 11.6622C65.1693 9.87637 63.7204 8.42871 61.9331 8.42871C60.1459 8.42871 58.697 9.87637 58.697 11.6622C58.697 13.4479 60.1459 14.8956 61.9331 14.8956Z" fill="#F2F2F2"/>
<path d="M61.9331 27.7822C63.7204 27.7822 65.1693 26.3346 65.1693 24.5488C65.1693 22.763 63.7204 21.3154 61.9331 21.3154C60.1459 21.3154 58.697 22.763 58.697 24.5488C58.697 26.3346 60.1459 27.7822 61.9331 27.7822Z" fill="#F2F2F2"/>
<path d="M61.9331 40.6689C63.7204 40.6689 65.1693 39.2212 65.1693 37.4354C65.1693 35.6497 63.7204 34.202 61.9331 34.202C60.1459 34.202 58.697 35.6497 58.697 37.4354C58.697 39.2212 60.1459 40.6689 61.9331 40.6689Z" fill="#F2F2F2"/>
<path d="M61.9331 53.5555C63.7204 53.5555 65.1693 52.1079 65.1693 50.3221C65.1693 48.5363 63.7204 47.0887 61.9331 47.0887C60.1459 47.0887 58.697 48.5363 58.697 50.3221C58.697 52.1079 60.1459 53.5555 61.9331 53.5555Z" fill="#F2F2F2"/>
<path d="M75.4443 14.8956C77.2315 14.8956 78.6804 13.4479 78.6804 11.6622C78.6804 9.87637 77.2315 8.42871 75.4443 8.42871C73.657 8.42871 72.2081 9.87637 72.2081 11.6622C72.2081 13.4479 73.657 14.8956 75.4443 14.8956Z" fill="#F2F2F2"/>
<path d="M75.4443 27.7822C77.2315 27.7822 78.6804 26.3346 78.6804 24.5488C78.6804 22.763 77.2315 21.3154 75.4443 21.3154C73.657 21.3154 72.2081 22.763 72.2081 24.5488C72.2081 26.3346 73.657 27.7822 75.4443 27.7822Z" fill="#F2F2F2"/>
<path d="M75.4443 40.6689C77.2315 40.6689 78.6804 39.2212 78.6804 37.4354C78.6804 35.6497 77.2315 34.202 75.4443 34.202C73.657 34.202 72.2081 35.6497 72.2081 37.4354C72.2081 39.2212 73.657 40.6689 75.4443 40.6689Z" fill="#F2F2F2"/>
<path d="M75.4443 53.5555C77.2315 53.5555 78.6804 52.1079 78.6804 50.3221C78.6804 48.5363 77.2315 47.0887 75.4443 47.0887C73.657 47.0887 72.2081 48.5363 72.2081 50.3221C72.2081 52.1079 73.657 53.5555 75.4443 53.5555Z" fill="#F2F2F2"/>
<path d="M88.9555 14.8956C90.7427 14.8956 92.1916 13.4479 92.1916 11.6622C92.1916 9.87637 90.7427 8.42871 88.9555 8.42871C87.1682 8.42871 85.7194 9.87637 85.7194 11.6622C85.7194 13.4479 87.1682 14.8956 88.9555 14.8956Z" fill="#F2F2F2"/>
<path d="M88.9555 27.7822C90.7427 27.7822 92.1916 26.3346 92.1916 24.5488C92.1916 22.763 90.7427 21.3154 88.9555 21.3154C87.1682 21.3154 85.7194 22.763 85.7194 24.5488C85.7194 26.3346 87.1682 27.7822 88.9555 27.7822Z" fill="#F2F2F2"/>
<path d="M88.9555 40.6689C90.7427 40.6689 92.1916 39.2212 92.1916 37.4354C92.1916 35.6497 90.7427 34.202 88.9555 34.202C87.1682 34.202 85.7194 35.6497 85.7194 37.4354C85.7194 39.2212 87.1682 40.6689 88.9555 40.6689Z" fill="#F2F2F2"/>
<path d="M88.9555 53.5555C90.7427 53.5555 92.1916 52.1079 92.1916 50.3221C92.1916 48.5363 90.7427 47.0887 88.9555 47.0887C87.1682 47.0887 85.7194 48.5363 85.7194 50.3221C85.7194 52.1079 87.1682 53.5555 88.9555 53.5555Z" fill="#F2F2F2"/>
<path d="M102.467 14.8956C104.254 14.8956 105.703 13.4479 105.703 11.6622C105.703 9.87637 104.254 8.42871 102.467 8.42871C100.679 8.42871 99.2305 9.87637 99.2305 11.6622C99.2305 13.4479 100.679 14.8956 102.467 14.8956Z" fill="#F2F2F2"/>
<path d="M102.467 27.7822C104.254 27.7822 105.703 26.3346 105.703 24.5488C105.703 22.763 104.254 21.3154 102.467 21.3154C100.679 21.3154 99.2305 22.763 99.2305 24.5488C99.2305 26.3346 100.679 27.7822 102.467 27.7822Z" fill="#F2F2F2"/>
<path d="M102.467 40.6689C104.254 40.6689 105.703 39.2212 105.703 37.4354C105.703 35.6497 104.254 34.202 102.467 34.202C100.679 34.202 99.2305 35.6497 99.2305 37.4354C99.2305 39.2212 100.679 40.6689 102.467 40.6689Z" fill="#F2F2F2"/>
<path d="M102.467 53.5555C104.254 53.5555 105.703 52.1079 105.703 50.3221C105.703 48.5363 104.254 47.0887 102.467 47.0887C100.679 47.0887 99.2305 48.5363 99.2305 50.3221C99.2305 52.1079 100.679 53.5555 102.467 53.5555Z" fill="#F2F2F2"/>
<path d="M115.978 14.8956C117.765 14.8956 119.214 13.4479 119.214 11.6622C119.214 9.87637 117.765 8.42871 115.978 8.42871C114.191 8.42871 112.742 9.87637 112.742 11.6622C112.742 13.4479 114.191 14.8956 115.978 14.8956Z" fill="#F2F2F2"/>
<path d="M115.978 27.7822C117.765 27.7822 119.214 26.3346 119.214 24.5488C119.214 22.763 117.765 21.3154 115.978 21.3154C114.191 21.3154 112.742 22.763 112.742 24.5488C112.742 26.3346 114.191 27.7822 115.978 27.7822Z" fill="#F2F2F2"/>
<path d="M115.978 40.6689C117.765 40.6689 119.214 39.2212 119.214 37.4354C119.214 35.6497 117.765 34.202 115.978 34.202C114.191 34.202 112.742 35.6497 112.742 37.4354C112.742 39.2212 114.191 40.6689 115.978 40.6689Z" fill="#F2F2F2"/>
<path d="M115.978 53.5555C117.765 53.5555 119.214 52.1079 119.214 50.3221C119.214 48.5363 117.765 47.0887 115.978 47.0887C114.191 47.0887 112.742 48.5363 112.742 50.3221C112.742 52.1079 114.191 53.5555 115.978 53.5555Z" fill="#F2F2F2"/>
<path d="M301.131 193.896C302.918 193.896 304.367 192.448 304.367 190.662C304.367 188.876 302.918 187.429 301.131 187.429C299.344 187.429 297.895 188.876 297.895 190.662C297.895 192.448 299.344 193.896 301.131 193.896Z" fill="#F2F2F2"/>
<path d="M301.131 206.782C302.918 206.782 304.367 205.335 304.367 203.549C304.367 201.763 302.918 200.315 301.131 200.315C299.344 200.315 297.895 201.763 297.895 203.549C297.895 205.335 299.344 206.782 301.131 206.782Z" fill="#F2F2F2"/>
<path d="M301.131 219.669C302.918 219.669 304.367 218.221 304.367 216.435C304.367 214.65 302.918 213.202 301.131 213.202C299.344 213.202 297.895 214.65 297.895 216.435C297.895 218.221 299.344 219.669 301.131 219.669Z" fill="#F2F2F2"/>
<path d="M314.642 193.896C316.429 193.896 317.878 192.448 317.878 190.662C317.878 188.876 316.429 187.429 314.642 187.429C312.855 187.429 311.406 188.876 311.406 190.662C311.406 192.448 312.855 193.896 314.642 193.896Z" fill="#F2F2F2"/>
<path d="M314.642 206.782C316.429 206.782 317.878 205.335 317.878 203.549C317.878 201.763 316.429 200.315 314.642 200.315C312.855 200.315 311.406 201.763 311.406 203.549C311.406 205.335 312.855 206.782 314.642 206.782Z" fill="#F2F2F2"/>
<path d="M314.642 219.669C316.429 219.669 317.878 218.221 317.878 216.435C317.878 214.65 316.429 213.202 314.642 213.202C312.855 213.202 311.406 214.65 311.406 216.435C311.406 218.221 312.855 219.669 314.642 219.669Z" fill="#F2F2F2"/>
<path d="M328.153 193.896C329.941 193.896 331.389 192.448 331.389 190.662C331.389 188.876 329.941 187.429 328.153 187.429C326.366 187.429 324.917 188.876 324.917 190.662C324.917 192.448 326.366 193.896 328.153 193.896Z" fill="#F2F2F2"/>
<path d="M328.153 206.782C329.941 206.782 331.389 205.335 331.389 203.549C331.389 201.763 329.941 200.315 328.153 200.315C326.366 200.315 324.917 201.763 324.917 203.549C324.917 205.335 326.366 206.782 328.153 206.782Z" fill="#F2F2F2"/>
<path d="M328.153 219.669C329.941 219.669 331.389 218.221 331.389 216.435C331.389 214.65 329.941 213.202 328.153 213.202C326.366 213.202 324.917 214.65 324.917 216.435C324.917 218.221 326.366 219.669 328.153 219.669Z" fill="#F2F2F2"/>
<path d="M341.664 193.896C343.452 193.896 344.901 192.448 344.901 190.662C344.901 188.876 343.452 187.429 341.664 187.429C339.877 187.429 338.428 188.876 338.428 190.662C338.428 192.448 339.877 193.896 341.664 193.896Z" fill="#F2F2F2"/>
<path d="M341.664 206.782C343.452 206.782 344.901 205.335 344.901 203.549C344.901 201.763 343.452 200.315 341.664 200.315C339.877 200.315 338.428 201.763 338.428 203.549C338.428 205.335 339.877 206.782 341.664 206.782Z" fill="#F2F2F2"/>
<path d="M341.664 219.669C343.452 219.669 344.901 218.221 344.901 216.435C344.901 214.65 343.452 213.202 341.664 213.202C339.877 213.202 338.428 214.65 338.428 216.435C338.428 218.221 339.877 219.669 341.664 219.669Z" fill="#F2F2F2"/>
</g>
<defs>
<clipPath id="clip0">
<rect width="369" height="272" fill="white"/>
</clipPath>
</defs>
</svg>
